# xmcd
#
# Track frame offsets:
#	150
#	15666
#	31936
#	50523
#	63459
#	80309
#	92427
#	108921
#	129471
#	146335
#	161521
#	175182
#	190082
#	205932
#	220908
#	239180
#	250821
#	266027
#
# Disc length: 3818 seconds
#
# Revision: 1
# Processed by: cddbd v1.4PL0 Copyright (c) Steve Scherf et al.
# Submitted via: audiograbber 1.82.02
#
DISCID=f70ee812
DTITLE=Various Artist - Hott Country 089
DYEAR=2003
DGENRE=Country
TTITLE0=Kenny Chesney - No Shoes, No Shirt, No Problem
TTITLE1=Keith Urban - Who Wouldn't Want To Be Me
TTITLE2=Aaron Tippin - Family Tradition
TTITLE3=Chalee Tennison - Lonesome Road
TTITLE4=Blue Rodeo - Palace Of Gold
TTITLE5=Great Big Sea - Penelope
TTITLE6=Deric Ruttan - When You Come Around
TTITLE7=Dixie Chicks - Godspeed ( Sweet Dreams )
TTITLE8=Buddy Jewell - Help Pour Out The Rain ( Lacey's Song )
TTITLE9=Justin Guarini - Unchained Melody
TTITLE10=Faith Hill - You're Still Here
TTITLE11=Nickelcreek - Smoothie Song
TTITLE12=Carolyn Dawn Johnson - Just Another Girl
TTITLE13=Joe Nichols - She Only Smokes When She Drinks
TTITLE14=Chalee Tennison - Easy Lovin' You
TTITLE15=The Be Good Tanyas - It's Not Happening
TTITLE16=Blue Rodeo - Love Never Lies
TTITLE17=Donnie McClurkin/Yolanda Adams - The Prayer
EXTD=
EXTT0=
EXTT1=
EXTT2=
EXTT3=
EXTT4=
EXTT5=
EXTT6=
EXTT7=
EXTT8=
EXTT9=
EXTT10=
EXTT11=
EXTT12=
EXTT13=
EXTT14=
EXTT15=
EXTT16=
EXTT17=
PLAYORDER=
